<svg xmlns="http://www.w3.org/2000/svg" version="1.1" width="100" height="100" viewBox="0 0 416 416">
<path d="M0 0 C5.6112043 3.34777292 9.8538298 7.63800731 11.64453125 14.0546875 C12.25803615 20.29198732 11.53268639 24.99904341 7.64453125 30.0546875 C3.32791866 33.9642325 -1.39710475 36.92831924 -7.3203125 37.2109375 C-13.76321447 36.71628092 -18.03541683 34.8511416 -22.35546875 29.9921875 C-26.99490175 24.22511453 -27.02957863 19.36690716 -26.35546875 12.0546875 C-24.51445072 6.40156149 -20.53774458 2.93141427 -15.52734375 -0.0234375 C-10.70078846 -2.07211924 -4.84057364 -1.94265145 0 0 Z " fill="#EB6F26" transform="translate(330.35546875,194.9453125)" />
<path d="M0 0 C4.80923691 2.57600595 7.55675841 5.88235777 10.30859375 10.46875 C11.69363397 16.13482363 10.88207544 21.44113419 8.37109375 26.65625 C3.87864671 31.6215862 0.15753805 33.50557695 -6.44140625 33.84375 C-12.02692836 33.60590497 -15.97055676 32.20071668 -20.00390625 28.28125 C-23.82657536 23.20240634 -24.70770053 18.51485649 -24.00390625 12.28125 C-22.1547147 6.84245134 -18.62803787 3.50763275 -14.00390625 0.28125 C-9.41328016 -1.2489587 -4.62850487 -1.6601265 0 0 Z " fill="#E97029" transform="translate(322.00390625,155.71875)" />
<path d="M0 0 C4.47870656 2.15937638 7.18198188 4.92952939 10 9 C11.44919541 13.34758623 11.51745876 17.45628677 11 22 C9.25 25.375 9.25 25.375 7 28 C6.38125 28.7425 5.7625 29.485 5.125 30.25 C1.09268796 33.57072756 -2.76246421 34.21932625 -7.875 34.0625 C-13.690266 33.34218004 -17.28418971 30.39886366 -21 26 C-23.75451755 21.55316448 -23.63414604 17.08099732 -23 12 C-19.11867077 0.90149641 -10.51676725 -0.99110896 0 0 Z " fill="#EB6F26" transform="translate(289,196)" />
<path d="M0 0 C3.69465673 3.02290096 6.23041637 5.6912491 7.75 10.25 C8.11826224 15.86599916 7.96556007 19.42665989 4.75 24.25 C0.55196974 28.39205652 -2.5935106 30.40918948 -8.5 30.5625 C-13.58937369 30.50927779 -16.37381874 29.74801724 -20.25 26.25 C-24.57674825 21.33855604 -25.68479925 18.38691659 -25.58203125 11.921875 C-25.03001177 7.47974179 -23.38579213 4.42225483 -20.25 1.25 C-13.46706563 -3.43099844 -7.32237368 -3.9428166 0 0 Z " fill="#EB6F26" transform="translate(303.25,122.75)" />
<path d="M0 0 C3.88446678 2.58964452 6.69907021 5.64814041 8.8125 9.875 C9.37985892 14.52548294 9.2723631 17.97230577 7.125 22.1875 C2.90769305 27.08869456 -0.36278007 29.58774035 -6.875 30.25 C-11.93113595 30.18469935 -15.36380339 28.03943857 -19.1875 24.875 C-22.61918545 21.12159404 -22.7062166 17.27406471 -22.53125 12.375 C-21.90134969 7.79390683 -20.24666784 4.63180902 -16.64453125 1.55859375 C-11.21677392 -2.00608898 -6.13771166 -2.16625117 0 0 Z " fill="#E8712B" transform="translate(279.1875,159.125)" />
<path d="M0 0 C3.11464807 3.86645967 4.14067821 8.07626276 4 13 C2.30567349 18.88030966 -0.16036195 21.57192304 -5 25 C-9.58093843 26.52697948 -13.70713758 26.94651972 -18.1953125 25.09375 C-22.7085511 22.49572335 -25.42303629 20.12513206 -27 15 C-27.67332466 10.26115809 -27.50660319 6.9944433 -25.3125 2.6875 C-17.89795852 -5.92939955 -9.11385202 -7.63020169 0 0 Z " fill="#EB6F26" transform="translate(255,202)" />
<path d="M0 0 C4.60755415 2.28400216 7.34123672 5.47817593 9.0078125 10.33984375 C9.82096113 14.67384212 9.34230062 17.72853787 7.1953125 21.65234375 C6.1125 22.98265625 6.1125 22.98265625 5.0078125 24.33984375 C4.5540625 24.91734375 4.1003125 25.49484375 3.6328125 26.08984375 C0.07234623 28.82866396 -3.59679764 29.56781961 -7.9921875 29.21484375 C-13.06165932 28.38124035 -16.47932352 26.05442293 -19.8671875 22.21484375 C-21.55807588 17.89368456 -21.64591643 13.91594628 -20.9921875 9.33984375 C-16.79935209 0.63164713 -9.19214487 -3.04602448 0 0 Z " fill="#EB6E26" transform="translate(268.9921875,96.66015625)" />
<path d="M0 0 C4.00138289 1.40893764 6.56455452 3.53105872 9.4375 6.625 C11.5624339 11.21485721 11.77783159 15.02511881 11 20 C8.83439611 24.87260876 5.91347405 27.25428383 1.1484375 29.37109375 C-2.46245258 30.42809976 -5.44584051 30.1552858 -9 29 C-12.80688899 26.91698527 -15.99546702 24.90356422 -18 21 C-19.08979003 16.58170398 -19.36162914 13.10615973 -17.9375 8.75 C-13.31956812 2.19551604 -8.15593208 -1.04714499 0 0 Z " fill="#EB7026" transform="translate(247,130)" />
<path d="M0 0 C3.45383685 2.35488876 4.9543281 4.07646328 6.75 7.875 C7.54997224 12.89523393 7.30656488 16.69765121 5.125 21.3125 C1.29086635 25.44932842 -2.16803293 27.02167482 -7.75 27.3125 C-12.23528507 27.14637833 -14.83695604 25.8817292 -18.25 22.875 C-21.63509352 19.03856068 -21.76632897 15.24067692 -21.59765625 10.3125 C-21.07190495 6.62633356 -19.76185609 4.58516051 -17.25 1.875 C-11.60641422 -1.9728994 -6.30738386 -2.18332518 0 0 Z " fill="#E96F28" transform="translate(231.25,84.125)" />
<path d="M0 0 C3.47878243 2.63259211 5.91276607 4.55079821 7.3125 8.75 C7.65780278 14.10219303 7.80057959 17.41997016 4.3125 21.75 C0.92000676 25.23942162 -1.95057956 26.48641576 -6.703125 26.84375 C-11.49080188 26.61756054 -14.19305575 24.2334566 -17.5 21 C-20.02487377 17.24875897 -20.76538724 15.26745973 -20.6875 10.75 C-19.14481867 6.10481511 -17.09684674 2.16802885 -12.6875 -0.25 C-8.1997634 -1.7459122 -4.34959007 -2.02306515 0 0 Z " fill="#EB7026" transform="translate(229.6875,166.25)" />
<path d="M0 0 C3.2426714 2.4995592 5.72801839 5.06842046 7 9 C7.45599783 14.01597611 7.12987123 17.00671602 4 21 C0.60743425 24.4894962 -2.26136498 25.73086811 -7.01171875 26.09765625 C-10.28269307 25.93699936 -12.3232586 24.82505096 -15 23 C-18.07612189 19.59132439 -19.87041393 17.34769509 -20.3125 12.75 C-19.88638355 7.63660256 -17.70962767 4.9831681 -14.4375 1.1875 C-10.34356439 -2.19444681 -4.80953307 -1.12939515 0 0 Z " fill="#E8712A" transform="translate(210,122)" />
<path d="M0 0 C3.69285727 2.29211831 6.39741797 4.91795142 8 9 C8.33403245 13.78779839 7.66898085 17.15021351 4.6875 20.9375 C0.88411465 23.85637713 -1.58156638 25.39678143 -6.4375 24.875 C-10.6301148 24.28886142 -13.03697464 23.14260266 -16 20 C-18.52470277 16.51350569 -18.36226929 13.20232375 -18 9 C-16.66729029 4.75198781 -15.05095908 2.71343033 -11.25 0.5625 C-7.1479031 -1.22559352 -4.34798743 -1.36881086 0 0 Z " fill="#E8702A" transform="translate(188,85)" />
<path d="M0 0 C3.82842867 2.06146159 6.90545116 4.14162056 9 8 C10.03689678 11.99945902 10.25753726 14.2703111 8.875 18.1875 C5.99052575 22.51421137 3.61664656 24.55909639 -1.4375 25.9375 C-7.09843083 26.03681458 -9.81159994 24.11089571 -13.875 20.3125 C-16.46073937 16.28178863 -17.00377531 13.65640214 -16 9 C-12.38395042 1.90182859 -8.00364446 -0.98290371 0 0 Z " fill="#EC6E27" transform="translate(167,132)" />
<path d="M0 0 C3.3374135 2.36826684 5.55311349 5.0299753 6.46875 9.06640625 C6.66999771 13.48547066 5.7991174 16.62175486 3 20 C-0.56336997 22.95250655 -3.58385262 23.47965422 -8.07421875 23.28515625 C-12.09689007 22.68950715 -14.27924909 20.86987179 -16.8125 17.8125 C-18.80980035 13.0820518 -18.77917258 8.94793145 -16.875 4.1875 C-12.26900858 -1.18615666 -6.54021815 -2.27333786 0 0 Z " fill="#E87029" transform="translate(150,100)" />
<path d="M0 0 C4.54447291 1.9023375 6.71481238 4.68353449 9 9 C9.65475406 12.92852437 9.19069606 14.62594235 7.375 18.1875 C4.6999062 21.35537423 2.92816991 22.69061003 -1 24 C-7.08432021 24 -9.8194017 22.08106025 -14 18 C-15.59799033 14.80401935 -15.36773555 11.47677244 -15 8 C-12.09315204 1.1153601 -7.21517187 -0.77305413 0 0 Z " fill="#EC6E24" transform="translate(187,167)" />
<path d="M0 0 C3.03522895 1.63435405 5.28352297 3.055553 7.375 5.8125 C8.73537221 10.57380273 8.56878187 13.92337717 6.25 18.3125 C3.26226793 21.88117997 1.68823369 22.77979561 -2.875 23.375 C-6.93145679 22.88822519 -8.88880113 21.6272346 -12 19 C-14.19641371 15.74080547 -15.01781953 13.8731572 -14.9375 9.9375 C-13.62481933 5.82443389 -11.66713504 3.16699453 -8.125 0.6875 C-5.18445523 -0.26385272 -3.08192861 -0.36983143 0 0 Z " fill="#EA6F28" transform="translate(138,162)" />
<path d="M0 0 C2.70567626 1.82339052 4.53728718 3.07457436 6 6 C6.57791538 13.0505676 6.57791538 13.0505676 4.25 16.875 C0.69879518 20.22891566 0.69879518 20.22891566 -2 21 C-7.29565084 20.80743088 -10.19770181 19.69046589 -14 16 C-15.60306924 12.79386153 -15.48740461 9.47860003 -15 6 C-11.04014817 -0.50547086 -7.32975767 -1.80029136 0 0 Z " fill="#E77028" transform="translate(117,127)" />
<path d="M0 0 C4.04212164 2.47018545 5.67811019 3.93965709 7.0625 8.5 C6.97663991 13.30816501 5.51517785 15.43070865 2.25 18.8125 C-1.03392206 20.54568109 -3.34119985 20.44932633 -7 20 C-10.65727429 17.96818095 -11.7968461 16.45709627 -13.5 12.625 C-14.10349632 8.2496517 -13.46369402 6.6134179 -11 3 C-7.69451332 -0.54159288 -4.69830602 -0.64804221 0 0 Z " fill="#E87229" transform="translate(95,162)" />
<path d="M0 0 C2.9375 1.4375 2.9375 1.4375 5 4 C6.26881355 7.73555721 6.78837377 11.1904945 5.1796875 14.8828125 C2.97987578 17.89844844 1.03452659 18.98951871 -2.5 20.0625 C-6.4168851 19.99255562 -7.94330708 19.37742783 -11 17 C-11.598125 16.608125 -12.19625 16.21625 -12.8125 15.8125 C-14.8155163 12.7552646 -14.62952142 9.4725214 -14 6 C-10.29458843 0.1948552 -6.74614381 -0.87880801 0 0 Z " fill="#EA6E28" transform="translate(168,203)" />
<path d="M0 0 C2.93200693 2.08326808 3.82319306 3.45779204 4.9375 6.875 C5.0154753 10.7737648 4.13513938 12.76047819 2 16 C-0.32726825 17.76551385 -1.97852351 17.99673184 -4.875 18.4375 C-9.29296691 17.81898463 -11.08049362 16.33657872 -14 13 C-14.75194708 10.1745019 -14.68168101 7.83556384 -14 5 C-10.23651117 -1.09944742 -6.7910809 -1.54884301 0 0 Z " fill="#E3732F" transform="translate(129,204)" />
<path d="M0 0 C2.9375 2.0625 2.9375 2.0625 5 5 C5.66896642 9.16245773 5.45194465 11.20040562 3.375 14.875 C0.46152755 17.48179114 -1.1038517 18 -5 18 C-7.87872577 16.6260627 -9.74989437 15.25010563 -12 13 C-12.55980872 8.12166689 -12.74549961 6.08436307 -9.9375 2 C-6.22192774 -0.52975133 -4.4117517 -0.7878128 0 0 Z " fill="#E6722A" transform="translate(88,204)" />
<path d="M0 0 C2.4375 1.625 2.4375 1.625 4 4 C4.625 7.4375 4.625 7.4375 4 11 C1.4375 14 1.4375 14 -2 16 C-6.32249312 16.14905149 -8.20063519 15.67946009 -11.5 12.875 C-13.50686067 9.02851705 -13.27176524 7.11453459 -12 3 C-8.25027671 -1.41143916 -5.44353178 -1.58357288 0 0 Z " fill="#DD6E31" transform="translate(188,239)" />
<path d="M0 0 C3.82842867 2.06146159 6.90545116 4.14162056 9 8 C10.08321368 12.17810991 10.26339485 14.32269896 8.6875 18.375 C7 21 7 21 5 22 C5.33 20.35 5.66 18.7 6 17 C6.66 17 7.32 17 8 17 C7.67 15.02 7.34 13.04 7 11 C6.319375 11.20625 5.63875 11.4125 4.9375 11.625 C1.21166669 12.10063829 -1.46992554 11.17669149 -5 10 C-5 9.34 -5 8.68 -5 8 C-5.66 8 -6.32 8 -7 8 C-7 8.66 -7 9.32 -7 10 C-8.98 10 -10.96 10 -13 10 C-13.33 11.98 -13.66 13.96 -14 16 C-14.66 16 -15.32 16 -16 16 C-16.45647158 10.29410528 -15.69917584 7.39901992 -12 3 C-8.07324125 -0.18385844 -4.98824428 -0.6125914 0 0 Z " fill="#E3722E" transform="translate(167,132)" />
<path d="M0 0 C2.4375 2.125 2.4375 2.125 4 5 C4.07481382 9.26438773 3.64839572 11.23718151 0.875 14.5 C-2.91613014 16.47798094 -4.92797973 16.13111674 -9 15 C-11.64764845 13.32315598 -11.95477045 12.14861139 -12.875 9.125 C-13.02602779 5.34930535 -12.35110647 3.91861492 -10 1 C-6.62771107 -1.55828815 -3.95120002 -1.23475 0 0 Z " fill="#E8722C" transform="translate(96,245)" />
<path d="M0 0 C3.02791041 2.57372384 3.86162709 4.15246594 4.5 8.0625 C3.87395791 11.74049726 3.02706748 12.84918889 0 15 C-3.71711555 16.18631347 -5.27841135 16.35277667 -8.8125 14.625 C-11 13 -11 13 -12 12 C-12.57692308 4.96153846 -12.57692308 4.96153846 -10.5 1.5 C-6.98105682 -0.61136591 -3.99893269 -0.94237143 0 0 Z " fill="#ED6E22" transform="translate(139,244)" />
<path d="M0 0 C2.64683505 1.93147423 3.7601604 3.41539097 5 6.4375 C5 9 5 9 3.5 11.75 C0.27292938 14.65436356 -1.68531766 15.0770479 -6 15 C-8.76090136 13.11096223 -9.74361484 11.66660143 -10.9375 8.5625 C-11.01929321 5.20897857 -9.98804097 3.65072129 -8 1 C-5.15916359 -0.42041821 -3.14522722 -0.31452272 0 0 Z " fill="#EC6D23" transform="translate(167,273)" />
<path d="M0 0 C2.55687669 0.34552388 4.57501375 0.75087013 6.8125 2.0625 C8.71501454 5.16660267 8.3720043 8.45165134 8 12 C7.67 12.99 7.34 13.98 7 15 C6.01 15 5.02 15 4 15 C4 16.32 4 17.64 4 19 C1.69 19.33 -0.62 19.66 -3 20 C-3.66 16.7 -4.32 13.4 -5 10 C-4.34 10 -3.68 10 -3 10 C-3 8.35 -3 6.7 -3 5 C-2.01 4.67 -1.02 4.34 0 4 C0 2.68 0 1.36 0 0 Z " fill="#EB6E26" transform="translate(113,128)" />
<path d="M0 0 C2.84438258 1.46062889 3.76256764 2.39850468 4.9375 5.375 C5.01828215 8.76785009 4.01224965 10.31700046 2 13 C-0.84083641 14.42041821 -2.85477278 14.31452272 -6 14 C-8.375 12.375 -8.375 12.375 -10 10 C-10.61195145 6.3282913 -10.48706506 4.71186432 -8.375 1.625 C-5.30522452 -0.4753727 -3.65443439 -0.53293835 0 0 Z " fill="#E87027" transform="translate(115,281)" />
<path d="M0 0 C4.54447291 1.9023375 6.71481238 4.68353449 9 9 C9.65475406 12.92852437 9.19069606 14.62594235 7.375 18.1875 C4.6999062 21.35537423 2.92816991 22.69061003 -1 24 C-4.875 23.6875 -4.875 23.6875 -8 23 C-8 22.67 -8 22.34 -8 22 C-5.03 22 -2.06 22 1 22 C0.34 20.68 -0.32 19.36 -1 18 C0.75 16.4375 0.75 16.4375 3 15 C5.25 15.3125 5.25 15.3125 7 16 C6.4740625 14.63875 6.4740625 14.63875 5.9375 13.25 C5.03531221 10.12241564 4.86618493 8.94791919 6 6 C4.7934375 5.814375 4.7934375 5.814375 3.5625 5.625 C2.716875 5.41875 1.87125 5.2125 1 5 C0.67 4.34 0.34 3.68 0 3 C-5.30434329 2.58329058 -5.30434329 2.58329058 -10.25 4.09375 C-12.81363206 6.88627778 -12.39712675 8.97254967 -12.25 12.6875 C-12.21390625 13.86699219 -12.1778125 15.04648438 -12.140625 16.26171875 C-12.09421875 17.16535156 -12.0478125 18.06898438 -12 19 C-14.85276981 16.56986275 -14.98452213 16.15993802 -15.375 12.125 C-15.21520964 8.33866318 -14.46699112 5.97740308 -12 3 C-8.06538376 -0.16955197 -4.97922113 -0.53348798 0 0 Z " fill="#E1753A" transform="translate(187,167)" />
<path d="M0 0 C2.5 2.125 2.5 2.125 4 5 C3.4375 8.1875 3.4375 8.1875 2 11 C-1 13 -1 13 -4 12.875 C-7 12 -7 12 -8.9375 10.3125 C-10.39615475 7.13778084 -10.00471852 5.30121799 -9 2 C-5.50434664 -0.33043558 -4.1134271 -0.58763244 0 0 Z " fill="#D57A3A" transform="translate(147,308)" />
<path d="M0 0 C2.60964149 1.03012164 3.83498357 1.58694861 5.375 3.9375 C5.77331203 7.12399624 5.98048083 9.0595528 4.125 11.75 C2.06250526 13.14955 0.88003771 13.79014484 -1.625 13.9375 C-3.86856294 12.78963059 -5.8345767 11.7279233 -7.625 9.9375 C-8 7.125 -8 7.125 -7.625 3.9375 C-5.12171555 1.14812589 -3.80877374 -0.09068509 0 0 Z " fill="#DD6F30" transform="translate(204.625,284.0625)" />
<path d="M0 0 C5 6.59090909 5 6.59090909 5 10 C7.64 9.01 10.28 8.02 13 7 C13 7.66 13 8.32 13 9 C13.99 9 14.98 9 16 9 C15.67 7.02 15.34 5.04 15 3 C15.99 3 16.98 3 18 3 C18.66 4.98 19.32 6.96 20 9 C19.34 9 18.68 9 18 9 C18 9.99 18 10.98 18 12 C17.37351562 11.96519531 16.74703125 11.93039063 16.1015625 11.89453125 C15.28429687 11.86746094 14.46703125 11.84039062 13.625 11.8125 C12.40683594 11.76029297 12.40683594 11.76029297 11.1640625 11.70703125 C10.44992187 11.80371094 9.73578125 11.90039062 9 12 C8.01 13.485 8.01 13.485 7 15 C2.88550149 15.4571665 -0.38596151 15.06516485 -4 13 C-4.8125 10.875 -4.8125 10.875 -5 9 C-3.35 9 -1.7 9 0 9 C-0.185625 7.88625 -0.37125 6.7725 -0.5625 5.625 C-1 2 -1 2 0 0 Z " fill="#EE6E22" transform="translate(265,171)" />
<path d="M0 0 C2.97 0 5.94 0 9 0 C8.979375 1.2375 8.95875 2.475 8.9375 3.75 C8.93233319 6.6640825 9.06984442 9.20953327 10 12 C9.01 12.495 9.01 12.495 8 13 C7.34 12.67 6.68 12.34 6 12 C6 11.34 6 10.68 6 10 C4.68 10 3.36 10 2 10 C2 11.32 2 12.64 2 14 C0.68 13.67 -0.64 13.34 -2 13 C-1.34 8.71 -0.68 4.42 0 0 Z " fill="#ED6F23" transform="translate(226,174)" />
<path d="M0 0 C2.9653605 1.21655815 4.06605422 2.09576188 5.4375 5 C4.9375 7.625 4.9375 7.625 3.4375 10 C0.71363234 11.64865674 -0.6856333 12.19485927 -3.8125 11.5 C-5.5625 10 -5.5625 10 -6.5625 7.125 C-6.5625 4 -6.5625 4 -4.9375 1.5625 C-2.5625 0 -2.5625 0 0 0 Z " fill="#DD7831" transform="translate(226.5625,322)" />
<path d="M0 0 C3.125 0.25 3.125 0.25 5 1.4375 C6.53159584 3.90507108 6.55322025 5.39519831 6.125 8.25 C4.9375 10.0625 4.9375 10.0625 3.125 11.25 C0.6875 11.6875 0.6875 11.6875 -1.875 11.25 C-4.1875 9.25 -4.1875 9.25 -5.875 7.25 C-3.66282112 0.31850618 -3.66282112 0.31850618 0 0 Z " fill="#E46B2A" transform="translate(242.875,274.75)" />
<path d="M0 0 C1.65 0 3.3 0 5 0 C5.33 1.65 5.66 3.3 6 5 C6.66 5 7.32 5 8 5 C8.33 4.34 8.66 3.68 9 3 C9.99 3.66 10.98 4.32 12 5 C12.25660094 8.07921132 12.39431504 10.21136993 11 13 C7.93606987 13.25532751 6.36766788 13.21861333 3.6875 11.625 C3.130625 11.08875 2.57375 10.5525 2 10 C2 9.34 2 8.68 2 8 C2.66 8 3.32 8 4 8 C4 7.01 4 6.02 4 5 C2.35 5.33 0.7 5.66 -1 6 C-1 3 -1 3 0 0 Z " fill="#EC6E24" transform="translate(120,205)" />
<path d="M0 0 C3.0625 2.4375 3.0625 2.4375 5 5 C5 5.66 5 6.32 5 7 C1.125 5.25 1.125 5.25 0 3 C-2.02463255 2.34786708 -2.02463255 2.34786708 -4 2 C-4 2.99 -4 3.98 -4 5 C-4.598125 4.773125 -5.19625 4.54625 -5.8125 4.3125 C-8.01879331 3.73942817 -8.01879331 3.73942817 -9.5625 5.125 C-11.2430532 7.31702591 -12.63738638 9.59920457 -14 12 C-15.76462683 8.91190305 -16 7.76687864 -16 4 C-11.43881083 -1.50488348 -6.6067165 -1.72399432 0 0 Z " fill="#E87325" transform="translate(150,100)" />
<path d="M0 0 C3.0625 0.375 3.0625 0.375 5.0625 2.0625 C6.0625 4.375 6.0625 4.375 5.375 7 C4.0625 9.375 4.0625 9.375 2.0625 11.375 C-0.9375 11.1875 -0.9375 11.1875 -3.9375 10.375 C-5.9375 7.375 -5.9375 7.375 -5.6875 4.8125 C-4.58892251 1.24212316 -3.72145253 0.47507905 0 0 Z " fill="#CF743F" transform="translate(182.9375,322.625)" />
<path d="M0 0 C3.46156072 1.88953202 5.67670118 3.96082522 6.875 7.8125 C6.91625 8.534375 6.9575 9.25625 7 10 C4.48916886 8.74458443 4.12874554 7.49936512 3 5 C-0.12290635 5.48578543 -2.99580359 5.9986012 -6 7 C-6.33 7.99 -6.66 8.98 -7 10 C-9.97 9.505 -9.97 9.505 -13 9 C-12.71897086 5.62765029 -12.19628348 4.21360261 -9.875 1.6875 C-6.18287887 -0.47961458 -4.22332332 -0.66684052 0 0 Z " fill="#E5732D" transform="translate(95,162)" />
<path d="M0 0 C0.66 0 1.32 0 2 0 C0.56179187 5.03372844 -1.90245515 6.98955889 -6 10 C-10.42677627 11.47559209 -14.74272932 11.97164471 -19.078125 10.10546875 C-20.75968588 9.13822946 -22.38590846 8.07606103 -24 7 C-19.99799622 5.39919849 -16.95443764 6.70720308 -13 8 C-12.34 6.68 -11.68 5.36 -11 4 C-8.03 4.33 -5.06 4.66 -2 5 C-2 4.01 -2 3.02 -2 2 C-1.34 2 -0.68 2 0 2 C0 1.34 0 0.68 0 0 Z " fill="#E17231" transform="translate(285,178)" />
<path d="M0 0 C1.98 0 3.96 0 6 0 C5.67 1.32 5.34 2.64 5 4 C6.58367747 3.85795259 8.16693318 3.71119847 9.75 3.5625 C10.63171875 3.48128906 11.5134375 3.40007812 12.421875 3.31640625 C14.69578548 3.03733542 16.78769705 2.57231315 19 2 C19.66 2 20.32 2 21 2 C22.37638932 1.8452253 23.751324 1.67724852 25.125 1.5 C27.043125 1.2525 27.043125 1.2525 29 1 C25.53717579 5.36616966 21.38686265 7.10919276 16 8 C9.213115 7.77547147 4.7062789 5.83012834 0 1 C0 0.67 0 0.34 0 0 Z " fill="#DC7538" transform="translate(308,224)" />
<path d="M0 0 C0.66 1.32 1.32 2.64 2 4 C1.34 4 0.68 4 0 4 C0.33 5.32 0.66 6.64 1 8 C0.01 8.33 -0.98 8.66 -2 9 C-2.66 8.67 -3.32 8.34 -4 8 C-4.66 8.66 -5.32 9.32 -6 10 C-6.66 10.66 -7.32 11.32 -8 12 C-9.93607846 9.1528258 -9.98954766 7.84582804 -9.75 4.3125 C-9.5025 3.219375 -9.255 2.12625 -9 1 C-6.04335481 -0.4783226 -3.25770263 -0.06032783 0 0 Z " fill="#EC6F25" transform="translate(187,240)" />
<path d="M0 0 C1.9375 1.6875 1.9375 1.6875 3 4 C2.33228817 6.39263407 1.77902615 8.22097385 0 10 C-2.33944736 9.71269945 -4.6739143 9.38063221 -7 9 C-8.33157895 3.55263158 -8.33157895 3.55263158 -6.875 1.125 C-4.34227807 -0.39463316 -2.9039635 -0.50819361 0 0 Z " fill="#DD6F32" transform="translate(266,309)" />
<path d="M0 0 C-0.99 0.99 -1.98 1.98 -3 3 C-3.556875 2.2265625 -3.556875 2.2265625 -4.125 1.4375 C-6.0091599 -0.35542466 -6.0091599 -0.35542466 -9 0.375 C-10.485 0.684375 -10.485 0.684375 -12 1 C-12.99 0.67 -13.98 0.34 -15 0 C-15 -0.66 -15 -1.32 -15 -2 C-18.3529984 -0.82191948 -20.7552529 0.19406612 -23 3 C-23.33 3.99 -23.66 4.98 -24 6 C-24.66 6 -25.32 6 -26 6 C-24.60678155 1.12373543 -22.06141704 -1.07577973 -18 -4 C-11.5968187 -6.98815127 -5.07647453 -3.93426776 0 0 Z " fill="#D97338" transform="translate(255,202)" />
<path d="M0 0 C1.32 0.66 2.64 1.32 4 2 C3.34 3.32 2.68 4.64 2 6 C-0.64 6 -3.28 6 -6 6 C-5.67 7.65 -5.34 9.3 -5 11 C-6.65 11.33 -8.3 11.66 -10 12 C-10.33 12.99 -10.66 13.98 -11 15 C-11 14.01 -11 13.02 -11 12 C-11.66 12 -12.32 12 -13 12 C-13.33 9.69 -13.66 7.38 -14 5 C-10.125 6.875 -10.125 6.875 -9 8 C-8.34 6.68 -7.68 5.36 -7 4 C-6.34 4 -5.68 4 -5 4 C-4.67 3.01 -4.34 2.02 -4 1 C-2.68 1.66 -1.36 2.32 0 3 C0 2.01 0 1.02 0 0 Z " fill="#F06B22" transform="translate(146,102)" />
<path d="M0 0 C2.70567626 1.82339052 4.53728718 3.07457436 6 6 C6.57971014 13.07246377 6.57971014 13.07246377 4.125 17 C2 19 2 19 0 19 C0 18.01 0 17.02 0 16 C0.99 16 1.98 16 3 16 C3.10815225 14.23050905 3.18566083 12.45912513 3.25 10.6875 C3.31960937 9.20830078 3.31960937 9.20830078 3.390625 7.69921875 C3.2497816 4.91672131 3.2497816 4.91672131 1.28125 3.15625 C-1.30791867 1.84393163 -2.86975445 1.68543034 -5.75 1.8125 C-6.54921875 1.83957031 -7.3484375 1.86664063 -8.171875 1.89453125 C-9.07679687 1.94673828 -9.07679687 1.94673828 -10 2 C-11.4576935 4.71939459 -12.42442664 7.24754273 -13.125 10.25 C-13.41375 11.4875 -13.7025 12.725 -14 14 C-14.33 14 -14.66 14 -15 14 C-15.48801743 6.80174292 -15.48801743 6.80174292 -13.25 3.125 C-8.74530102 -1.12943792 -6.14169234 -1.50848584 0 0 Z " fill="#D87641" transform="translate(117,127)" />
<path d="M0 0 C5.26956454 2.83745783 9.08111197 6.24333592 11 12 C11.12781786 14.67394964 11.04391871 17.32095857 11 20 C10.67 20 10.34 20 10 20 C10 17.69 10 15.38 10 13 C9.01 12.67 8.02 12.34 7 12 C7 10.68 7 9.36 7 8 C6.34 8 5.68 8 5 8 C5 7.34 5 6.68 5 6 C-0.94 4.515 -0.94 4.515 -7 3 C-7 2.34 -7 1.68 -7 1 C-8.32 0.67 -9.64 0.34 -11 0 C-7.1336217 -1.28879277 -3.89119094 -0.95249266 0 0 Z " fill="#E17836" transform="translate(300,121)" />
<path d="M0 0 C0 0.66 0 1.32 0 2 C-0.99 2 -1.98 2 -3 2 C-3 2.66 -3 3.32 -3 4 C-3.763125 4.04125 -4.52625 4.0825 -5.3125 4.125 C-8.26211223 4.78253483 -8.26211223 4.78253483 -9.875 7.75 C-11.04958369 11.14324178 -11.08664802 12.64126977 -10 16 C-9.01 16.33 -8.02 16.66 -7 17 C-7 18.32 -7 19.64 -7 21 C-10.05288447 19.94728122 -11.00231602 18.99648603 -12.8125 16.25 C-14.18794396 12.48562707 -14.21146926 10.79593702 -13 7 C-9.43251313 1.58726131 -6.47117065 -0.35950948 0 0 Z " fill="#DC7437" transform="translate(137,162)" />
<path d="M0 0 C1.051875 -0.00386719 1.051875 -0.00386719 2.125 -0.0078125 C4 0.125 4 0.125 6 1.125 C6 1.785 6 2.445 6 3.125 C5.34 3.125 4.68 3.125 4 3.125 C3.67 4.115 3.34 5.105 3 6.125 C2.34 6.125 1.68 6.125 1 6.125 C0.67 4.805 0.34 3.485 0 2.125 C-1.32 2.125 -2.64 2.125 -4 2.125 C-4 2.785 -4 3.445 -4 4.125 C-4.66 4.785 -5.32 5.445 -6 6.125 C-6.6425235 8.19374034 -6.6425235 8.19374034 -7 10.125 C-7.66 10.125 -8.32 10.125 -9 10.125 C-9 9.135 -9 8.145 -9 7.125 C-10.65 8.445 -12.3 9.765 -14 11.125 C-12.56314642 6.09601246 -10.05763331 4.16822498 -6 1.125 C-3.75487738 0.00243869 -2.48543351 -0.00913762 0 0 Z " fill="#E1753A" transform="translate(243,129.875)" />
<path d="M0 0 C1.0326802 2.78823655 1.04509293 3.8677274 0.0625 6.75 C-0.288125 7.4925 -0.63875 8.235 -1 9 C-0.0409375 9.1546875 -0.0409375 9.1546875 0.9375 9.3125 C1.618125 9.539375 2.29875 9.76625 3 10 C3.33 10.99 3.66 11.98 4 13 C6.31 13.33 8.62 13.66 11 14 C11 13.34 11 12.68 11 12 C11.99 11.67 12.98 11.34 14 11 C14.66 11.66 15.32 12.32 16 13 C14.06854852 15.61314024 12.84383105 16.04048825 9.625 16.875 C5.54477181 17.01569752 4.17170346 16.46688047 1 14 C0.401875 13.608125 -0.19625 13.21625 -0.8125 12.8125 C-2.76094732 9.83855409 -2.53527737 6.44802043 -2 3 C-1.34 2.01 -0.68 1.02 0 0 Z " fill="#DA793B" transform="translate(156,206)" />
<path d="M0 0 C3.25696479 0.41755959 4.63443291 0.63443291 7 3 C6.625 5.625 6.625 5.625 6 8 C3.1875 8.6875 3.1875 8.6875 0 9 C-1.875 7.5625 -1.875 7.5625 -3 6 C-1.125 1.125 -1.125 1.125 0 0 Z " fill="#D17A3D" transform="translate(293,283)" />
<path d="M0 0 C3.3125 -0.3125 3.3125 -0.3125 7 0 C9.38164192 2.84260487 10 4.28405267 10 8 C6.625 8.625 6.625 8.625 3 9 C2.34 8.34 1.68 7.68 1 7 C1 5.68 1 4.36 1 3 C0.34 2.67 -0.32 2.34 -1 2 C-0.67 1.34 -0.34 0.68 0 0 Z " fill="#EB6A21" transform="translate(138,310)" />
<path d="M0 0 C0.99 0.33 1.98 0.66 3 1 C3 1.99 3 2.98 3 4 C3.928125 4.4640625 3.928125 4.4640625 4.875 4.9375 C6.25 5.625 7.625 6.3125 9 7 C9 5.68 9 4.36 9 3 C13.12751449 3.60698743 16.3321148 5.03810791 20 7 C15.95243039 9.69837974 12.75294418 9.65697693 8 9 C4.24680792 7.15752389 2.4973035 5.994607 0.625 2.25 C0.41875 1.5075 0.2125 0.765 0 0 Z " fill="#E07C38" transform="translate(211,102)" />
<path d="M0 0 C0.98484375 0.01804688 1.9696875 0.03609375 2.984375 0.0546875 C4.10585938 0.08949219 4.10585938 0.08949219 5.25 0.125 C5.25 0.455 5.25 0.785 5.25 1.125 C3.83461283 1.46372513 2.41762037 1.79574624 1 2.125 C0.21109375 2.310625 -0.5778125 2.49625 -1.390625 2.6875 C-3.75 3.125 -3.75 3.125 -7.75 3.125 C-8.08 4.775 -8.41 6.425 -8.75 8.125 C-10.4 8.125 -12.05 8.125 -13.75 8.125 C-14.41 9.445 -15.07 10.765 -15.75 12.125 C-16.41 12.125 -17.07 12.125 -17.75 12.125 C-16.18353142 6.64235996 -12.65545732 3.92391081 -7.9140625 0.98828125 C-5.1639658 -0.10877899 -2.95068528 -0.07025441 0 0 Z " fill="#DD7335" transform="translate(322.75,193.875)" />
<path d="M0 0 C3.23000416 -0.22022756 5.39975854 -0.3082321 8.3125 1.1875 C10.47994914 3.51550092 10.92432671 4.8217219 11 8 C8.80597015 12.59701493 8.80597015 12.59701493 6 14 C4.00039988 14.039992 1.99952758 14.04346799 0 14 C-0.33 13.34 -0.66 12.68 -1 12 C2.465 11.505 2.465 11.505 6 11 C6 10.01 6 9.02 6 8 C6.66 8 7.32 8 8 8 C8 6.35 8 4.7 8 3 C5.36 2.34 2.72 1.68 0 1 C0 0.67 0 0.34 0 0 Z " fill="#CF7843" transform="translate(109,281)" />
<path d="M0 0 C2.4375 1 2.4375 1 4 2 C0.93390816 3.53304592 -2.11913327 2.91335742 -5.4921875 2.7421875 C-8.65166033 3.06699312 -9.8857969 3.61786794 -12 6 C-12.48466366 9.19802776 -12.48466366 9.19802776 -12.25 12.6875 C-12.21390625 13.86699219 -12.1778125 15.04648438 -12.140625 16.26171875 C-12.09421875 17.16535156 -12.0478125 18.06898438 -12 19 C-14.85276981 16.56986275 -14.98452213 16.15993802 -15.375 12.125 C-15.21520964 8.33866318 -14.46699112 5.97740308 -12 3 C-8.05923481 -0.1745053 -4.98245604 -0.45295055 0 0 Z " fill="#D67B42" transform="translate(187,167)" />
<path d="M0 0 C2 2 2 2 2.375 4.875 C2 8 2 8 0.375 10.3125 C-2.55936789 12.39744561 -4.4021905 12.92657532 -8 13 C-10.875 11.5625 -10.875 11.5625 -13 10 C-11.68 9.67 -10.36 9.34 -9 9 C-8.67 7.68 -8.34 6.36 -8 5 C-7.67 5 -7.34 5 -7 5 C-7 7.31 -7 9.62 -7 12 C-4.44209319 11.12112985 -4.44209319 11.12112985 -2 9 C-0.95977199 6.0518161 -0.43412264 3.09069405 0 0 Z " fill="#CE7344" transform="translate(141,247)" />
<path d="M0 0 C3.91214179 0.96087693 5.267517 1.60906266 7.5625 4.875 C8.52807827 8.18555407 8.89985758 10.02036079 7.625 13.25 C7.274375 13.78625 6.92375 14.3225 6.5625 14.875 C5.20810332 12.16620665 5.49748549 9.86566732 5.5625 6.875 C4.5725 6.875 3.5825 6.875 2.5625 6.875 C1.9025 6.875 1.2425 6.875 0.5625 6.875 C0.2325 5.555 -0.0975 4.235 -0.4375 2.875 C-3.4075 2.38 -3.4075 2.38 -6.4375 1.875 C-3.4375 -0.125 -3.4375 -0.125 0 0 Z " fill="#DC793F" transform="translate(125.4375,203.125)" />
<path d="M0 0 C1.2065625 0.0309375 1.2065625 0.0309375 2.4375 0.0625 C2.4375 0.7225 2.4375 1.3825 2.4375 2.0625 C3.4275 2.3925 4.4175 2.7225 5.4375 3.0625 C5.4375 5.0425 5.4375 7.0225 5.4375 9.0625 C4.4475 8.7325 3.4575 8.4025 2.4375 8.0625 C2.4375 7.0725 2.4375 6.0825 2.4375 5.0625 C1.4475 5.7225 0.4575 6.3825 -0.5625 7.0625 C-1.5525 7.0625 -2.5425 7.0625 -3.5625 7.0625 C-3.60504356 5.06295254 -3.60330783 3.06208364 -3.5625 1.0625 C-2.5625 0.0625 -2.5625 0.0625 0 0 Z " fill="#ED6E26" transform="translate(85.5625,204.9375)" />
<path d="M0 0 C0.66 0.66 1.32 1.32 2 2 C0.02 2 -1.96 2 -4 2 C-4 2.99 -4 3.98 -4 5 C-5.375 6.6875 -5.375 6.6875 -7 8 C-7.66 8 -8.32 8 -9 8 C-9.33 8.99 -9.66 9.98 -10 11 C-11.03321725 7.71249056 -11.20141923 6.42202124 -9.6875 3.25 C-6.87641034 -0.49811954 -4.51358445 -0.28209903 0 0 Z " fill="#D97237" transform="translate(167,273)" />
<path d="M0 0 C0.66 0.33 1.32 0.66 2 1 C1.67 2.65 1.34 4.3 1 6 C0.34 6 -0.32 6 -1 6 C-0.24849977 9.27773504 -0.24849977 9.27773504 3 11 C3 11.33 3 11.66 3 12 C5.31 12.33 7.62 12.66 10 13 C9.34 13.66 8.68 14.32 8 15 C4.64892772 14.81721424 1.99768877 14.63186955 -0.875 12.8125 C-2.52261692 10.15800608 -2.87533099 8.11672513 -3 5 C-1.5625 2.125 -1.5625 2.125 0 0 Z " fill="#D3753C" transform="translate(86,246)" />
<path d="M0 0 C0.66 0 1.32 0 2 0 C2.33 1.98 2.66 3.96 3 6 C3.66 5.67 4.32 5.34 5 5 C5 5.66 5 6.32 5 7 C5.99 7 6.98 7 8 7 C8 9.31 8 11.62 8 14 C4.60525334 12.59527724 2.78835755 11.23607557 1 8 C0.46617288 5.3205985 0.22766917 2.73203009 0 0 Z " fill="#E4772E" transform="translate(228,143)" />
<path d="M0 0 C1.24546405 2.49092811 0.7767578 3.41080733 0 6 C1.32 6 2.64 6 4 6 C4.33 4.35 4.66 2.7 5 1 C5.66 1 6.32 1 7 1 C7 2.32 7 3.64 7 5 C6.34 5 5.68 5 5 5 C5 5.99 5 6.98 5 8 C2.69 8.33 0.38 8.66 -2 9 C-2.33 6.36 -2.66 3.72 -3 1 C-2.01 0.67 -1.02 0.34 0 0 Z " fill="#F16C23" transform="translate(110,284)" />
<path d="M0 0 C0.66 0.33 1.32 0.66 2 1 C-3.24570025 7.89434889 -3.24570025 7.89434889 -8 9 C-13.22093758 9.58483008 -16.65859226 9.25605581 -21 6 C-18.3333581 4.66667905 -16.83319697 5.32897967 -14 6 C-14 6.66 -14 7.32 -14 8 C-12.68 8 -11.36 8 -10 8 C-10 7.34 -10 6.68 -10 6 C-8.3603125 5.62875 -8.3603125 5.62875 -6.6875 5.25 C-2.94091591 3.97997149 -1.89404734 3.34243648 0 0 Z " fill="#D77F3E" transform="translate(255,219)" />
<path d="M0 0 C0 0.33 0 0.66 0 1 C-0.71027344 1.18175781 -1.42054688 1.36351562 -2.15234375 1.55078125 C-3.07144531 1.80214844 -3.99054688 2.05351562 -4.9375 2.3125 C-6.31228516 2.67794922 -6.31228516 2.67794922 -7.71484375 3.05078125 C-8.46894531 3.36402344 -9.22304687 3.67726562 -10 4 C-10.33 4.99 -10.66 5.98 -11 7 C-10.01 7.66 -9.02 8.32 -8 9 C-8.99 10.32 -9.98 11.64 -11 13 C-12.32 11.68 -13.64 10.36 -15 9 C-13.73090537 5.08695821 -12.53743024 3.14389712 -9 1 C-5.8035914 -0.06546953 -3.34252724 -0.07427838 0 0 Z " fill="#DD783D" transform="translate(226,165)" />
<path d="M0 0 C0.99 0.33 1.98 0.66 3 1 C3 1.66 3 2.32 3 3 C3.99 3.33 4.98 3.66 6 4 C6 4.66 6 5.32 6 6 C5.34 6 4.68 6 4 6 C4.33 6.598125 4.66 7.19625 5 7.8125 C6 10 6 10 6 13 C3.67241689 12.06896676 2.25642868 11.34617872 0.75 9.3125 C-0.27095909 6.16454282 -0.12632947 3.28456632 0 0 Z " fill="#E27832" transform="translate(170,94)" />
<path d="M0 0 C0.2475 0.639375 0.495 1.27875 0.75 1.9375 C1.81562433 4.18741541 1.81562433 4.18741541 4.125 4.75 C4.74375 4.8325 5.3625 4.915 6 5 C1.57322373 6.47559209 -2.74272932 6.97164471 -7.078125 5.10546875 C-8.75968588 4.13822946 -10.38590846 3.07606103 -12 2 C-7.99799622 0.39919849 -4.95443764 1.70720308 -1 3 C-0.67 2.01 -0.34 1.02 0 0 Z " fill="#DB773C" transform="translate(273,183)" />
<path d="M0 0 C3.89193803 1.36584995 6.47769644 3.00081058 8.4375 6.75 C8.623125 7.4925 8.80875 8.235 9 9 C7.68 8.34 6.36 7.68 5 7 C5 6.34 5 5.68 5 5 C3.7934375 4.814375 3.7934375 4.814375 2.5625 4.625 C1.716875 4.41875 0.87125 4.2125 0 4 C-0.33 3.34 -0.66 2.68 -1 2 C-5.13574827 1.9015298 -8.93631321 2.22596442 -13 3 C-9.27261111 -0.88944928 -5.03659736 -0.76312081 0 0 Z " fill="#D77F3E" transform="translate(267,96)" />
<path d="M0 0 C0.66 0.33 1.32 0.66 2 1 C-0.58038956 4.15380946 -3.04544924 5.13718893 -7 6 C-15.82283275 6.01374273 -15.82283275 6.01374273 -18.80078125 3.44921875 C-19.19652344 2.97097656 -19.59226562 2.49273437 -20 2 C-18.68 1.67 -17.36 1.34 -16 1 C-15.67 1.66 -15.34 2.32 -15 3 C-11.97065509 3.65772428 -11.97065509 3.65772428 -9 4 C-9 3.34 -9 2.68 -9 2 C-7.6078125 2.061875 -7.6078125 2.061875 -6.1875 2.125 C-2.84190281 2.27136339 -2.84190281 2.27136339 0 0 Z " fill="#E27938" transform="translate(293,224)" />
<path d="M0 0 C1.32 0 2.64 0 4 0 C4 0.66 4 1.32 4 2 C-1.81629903 6.13603487 -6.89246422 7.0136784 -14 6 C-14.66 5.34 -15.32 4.68 -16 4 C-8.08 3.505 -8.08 3.505 0 3 C0 2.01 0 1.02 0 0 Z " fill="#D6783E" transform="translate(324,183)" />
<path d="M0 0 C0.63019694 8.03501094 0.63019694 8.03501094 -2 12.0625 C-2.66 12.701875 -3.32 13.34125 -4 14 C-4.9765625 7.9453125 -4.9765625 7.9453125 -5 6 C-4.34 5.34 -3.68 4.68 -3 4 C-3 3.01 -3 2.02 -3 1 C-1 0 -1 0 0 0 Z " fill="#DF7532" transform="translate(238,93)" />
<path d="M0 0 C4.21547257 -0.42154726 7.01429352 -0.42275746 10.375 2.1875 C13.00263823 5.00282667 13.78466133 6.23157335 14 10 C12 9 12 9 11.3125 7 C10.879375 6.34 10.44625 5.68 10 5 C6.43793339 4.18129815 6.43793339 4.18129815 3 4 C3 3.01 3 2.02 3 1 C2.01 0.67 1.02 0.34 0 0 Z " fill="#DF773F" transform="translate(88,162)" />
<path d="M0 0 C1.65 0.33 3.3 0.66 5 1 C4.45276317 4.37462715 3.9451 6.08235 2 9 C0.5 7.75 0.5 7.75 -1 6 C-1 2 -1 2 0 0 Z " fill="#EC6B24" transform="translate(182,325)" />
<path d="M0 0 C-1.4036827 2.80736541 -3.10783413 2.96708362 -6 4 C-6.99 4.33 -7.98 4.66 -9 5 C-9 6.65 -9 8.3 -9 10 C-9.99 10.495 -9.99 10.495 -11 11 C-11.48076923 4.75 -11.48076923 4.75 -9.4375 1.5625 C-6.18129203 -0.5248128 -3.79004984 -0.2915423 0 0 Z " fill="#D6783F" transform="translate(138,244)" />
<path d="M0 0 C0.90105469 0.00902344 1.80210938 0.01804688 2.73046875 0.02734375 C3.41753906 0.03894531 4.10460937 0.05054688 4.8125 0.0625 C4.8125 0.7225 4.8125 1.3825 4.8125 2.0625 C1.41518371 4.15315618 -1.23019405 4.48348999 -5.1875 4.0625 C-7.0625 2.5625 -7.0625 2.5625 -8.1875 1.0625 C-5.17259443 0.05753148 -3.14568308 -0.04085303 0 0 Z " fill="#DB7637" transform="translate(126.1875,217.9375)" />
<path d="M0 0 C5.02210841 1.43488812 7.04714931 3.86600903 10 8 C10 8.99 10 9.98 10 11 C9.01 11.33 8.02 11.66 7 12 C7 10.35 7 8.7 7 7 C6.34 7 5.68 7 5 7 C5 6.34 5 5.68 5 5 C4.34 5 3.68 5 3 5 C3 4.34 3 3.68 3 3 C2.01 2.67 1.02 2.34 0 2 C0 1.34 0 0.68 0 0 Z " fill="#E07A3A" transform="translate(289,197)" />
<path d="M0 0 C1.01382963 3.6208201 1.49897691 7.27811418 2 11 C0.35 11 -1.3 11 -3 11 C-2.67 9.68 -2.34 8.36 -2 7 C-3.98 6.01 -5.96 5.02 -8 4 C-7.01 3.34 -6.02 2.68 -5 2 C-5 2.66 -5 3.32 -5 4 C-3.68 4 -2.36 4 -1 4 C-0.67 2.68 -0.34 1.36 0 0 Z " fill="#EE6A26" transform="translate(89,168)" />
<path d="M0 0 C3.0625 2.4375 3.0625 2.4375 5 5 C5 5.66 5 6.32 5 7 C1.83884224 5.63016497 1.0072908 5.0109362 -1 2 C-3.3350401 1.63525642 -3.3350401 1.63525642 -5.9375 1.8125 C-6.81277344 1.83957031 -7.68804687 1.86664063 -8.58984375 1.89453125 C-9.38519531 1.92933594 -10.18054688 1.96414062 -11 2 C-11.99 2 -12.98 2 -14 2 C-9.48285763 -1.64285675 -5.37425055 -1.62296536 0 0 Z " fill="#D27945" transform="translate(150,100)" />
<path d="M0 0 C0 0.33 0 0.66 0 1 C-1.65 1.33 -3.3 1.66 -5 2 C-5.268125 2.94875 -5.53625 3.8975 -5.8125 4.875 C-7 8 -7 8 -10 10 C-9.67 8.68 -9.34 7.36 -9 6 C-9.66 5.67 -10.32 5.34 -11 5 C-8.45499142 -0.63537615 -5.97208347 -0.11059414 0 0 Z " fill="#DF7639" transform="translate(88,204)" />
<path d="M0 0 C2 3 2 3 2 6 C2.66 6 3.32 6 4 6 C3.7215625 6.86625 3.7215625 6.86625 3.4375 7.75 C2.95976454 10.20692525 3.24270636 11.64397534 4 14 C0.98654128 11.56979135 0.06407419 10.28094069 -0.8125 6.4375 C-1 3 -1 3 0 0 Z " fill="#DF7B39" transform="translate(210,174)" />
<path d="M0 0 C0.33 0 0.66 0 1 0 C1 2.64 1 5.28 1 8 C1.66 8 2.32 8 3 8 C3.33 8.99 3.66 9.98 4 11 C4.99 11.33 5.98 11.66 7 12 C8.1875 15.0625 8.1875 15.0625 9 18 C4.61144323 16.27592413 2.08513063 13.17026127 0 9 C-0.06950541 7.45976004 -0.08452357 5.91665012 -0.0625 4.375 C-0.05347656 3.55773437 -0.04445313 2.74046875 -0.03515625 1.8984375 C-0.02355469 1.27195313 -0.01195312 0.64546875 0 0 Z " fill="#D47640" transform="translate(278,133)" />
<path d="M0 0 C2.08489627 2.25168797 3 3.37736425 3 6.5 C1.66261008 9.8434748 0.05911803 11.15030073 -3 13 C-5.3125 12.75 -5.3125 12.75 -7 12 C-6.01 12 -5.02 12 -4 12 C-3.67 11.01 -3.34 10.02 -3 9 C-2.01 9 -1.02 9 0 9 C0 6.03 0 3.06 0 0 Z " fill="#D3783C" transform="translate(169,275)" />
<path d="M0 0 C-4.27813138 3.54052252 -8.28314654 3.32226057 -13.57421875 3.30078125 C-16 3 -16 3 -18 1 C-17.16855469 0.93941406 -16.33710938 0.87882813 -15.48046875 0.81640625 C-13.85044922 0.69072266 -13.85044922 0.69072266 -12.1875 0.5625 C-11.10855469 0.48128906 -10.02960938 0.40007812 -8.91796875 0.31640625 C-1.47272727 -0.49090909 -1.47272727 -0.49090909 0 0 Z " fill="#D37C46" transform="translate(305,150)" />
<path d="M0 0 C2.375 0.1875 2.375 0.1875 5 1 C5.268125 1.78375 5.53625 2.5675 5.8125 3.375 C6.72201714 6.10156385 6.72201714 6.10156385 8.89453125 6.99609375 C10.91529901 7.73574429 12.93136698 8.40827474 15 9 C11.47313219 10.1756226 10.08162929 9.54610097 6.78515625 8.02734375 C4.0218472 6.43708056 2.04611606 4.41813717 0 2 C0 1.34 0 0.68 0 0 Z " fill="#D97F40" transform="translate(249,116)" />
<path d="M0 0 C2.47310494 3.70965741 2.55899802 6.69814567 2 11 C0.5 14.5 0.5 14.5 -1 17 C-1.66 16.34 -2.32 15.68 -3 15 C-2.67 14.67 -2.34 14.34 -2 14 C-2.020625 13.071875 -2.04125 12.14375 -2.0625 11.1875 C-1.99935717 7.96721574 -1.46617505 6.74907822 0 4 C0 2.68 0 1.36 0 0 Z " fill="#DE7A3D" transform="translate(340,206)" />
<path d="M0 0 C0.33 0 0.66 0 1 0 C1.44811859 8.81299886 1.44811859 8.81299886 -2 13 C-4.1875 14.3125 -4.1875 14.3125 -6 15 C-5.67 13.02 -5.34 11.04 -5 9 C-4.34 9 -3.68 9 -3 9 C-3 8.34 -3 7.68 -3 7 C-2.01 7 -1.02 7 0 7 C0 4.69 0 2.38 0 0 Z " fill="#D9773F" transform="translate(155,107)" />
<path d="M0 0 C2.29013653 3.4352048 2.17842973 4.985331 2 9 C0.35 8.67 -1.3 8.34 -3 8 C-2.79375 7.38125 -2.5875 6.7625 -2.375 6.125 C-2.25125 5.42375 -2.1275 4.7225 -2 4 C-2.66 3.34 -3.32 2.68 -4 2 C-2.68 1.34 -1.36 0.68 0 0 Z " fill="#EA6A24" transform="translate(227,322)" />
<path d="M0 0 C0.33 0.66 0.66 1.32 1 2 C1.66 2 2.32 2 3 2 C1.96260081 5.34273074 0.92420935 6.04309664 -2.1875 7.8125 C-6.33153582 9.10326526 -8.80933339 8.94076189 -13 8 C-13 7.67 -13 7.34 -13 7 C-12.31292969 6.93941406 -11.62585938 6.87882813 -10.91796875 6.81640625 C-10.01691406 6.73261719 -9.11585938 6.64882812 -8.1875 6.5625 C-6.84751953 6.44068359 -6.84751953 6.44068359 -5.48046875 6.31640625 C-2.87256441 6.06510233 -2.87256441 6.06510233 0 5 C0 3.35 0 1.7 0 0 Z " fill="#D68240" transform="translate(231,184)" />
<path d="M0 0 C0.33 0 0.66 0 1 0 C1.16435547 0.95712891 1.16435547 0.95712891 1.33203125 1.93359375 C1.49058594 2.75988281 1.64914063 3.58617187 1.8125 4.4375 C1.96332031 5.26121094 2.11414063 6.08492187 2.26953125 6.93359375 C2.51058594 7.61550781 2.75164062 8.29742187 3 9 C3.99 9.33 4.98 9.66 6 10 C6 11.32 6 12.64 6 14 C2.94711553 12.94728122 1.99768398 11.99648603 0.1875 9.25 C-1.14117309 5.61363154 -0.96813148 3.69650201 0 0 Z " fill="#D57940" transform="translate(124,169)" />
<path d="M0 0 C2.31 0.66 4.62 1.32 7 2 C6.67 2.99 6.34 3.98 6 5 C6.66 5.33 7.32 5.66 8 6 C7.01 6.495 7.01 6.495 6 7 C6.33 7.66 6.66 8.32 7 9 C4.60510457 8.25675659 3.29222384 7.52942646 2.06640625 5.30859375 C1.32780077 3.55926499 0.65950315 1.78065851 0 0 Z " fill="#E27336" transform="translate(81,172)" />
<path d="M0 0 C2.892153 2.33238145 3.92971633 3.74697879 4.9375 7.375 C5.00868355 11.50364582 4.2150419 13.55437927 2 17 C1.34 17.33 0.68 17.66 0 18 C0.33 16.35 0.66 14.7 1 13 C1.66 13 2.32 13 3 13 C2.68991116 11.39536551 2.37683713 9.79130769 2.0625 8.1875 C1.88847656 7.29417969 1.71445313 6.40085938 1.53515625 5.48046875 C1.02258847 2.88602829 1.02258847 2.88602829 0 0 Z " fill="#D37C45" transform="translate(172,136)" />
<path d="M0 0 C0.99 0 1.98 0 3 0 C3 0.66 3 1.32 3 2 C3.99 2.33 4.98 2.66 6 3 C3.25 8.875 3.25 8.875 1 10 C0.67 6.7 0.34 3.4 0 0 Z " fill="#E47731" transform="translate(272,111)" />
<path d="M0 0 C2.31 0 4.62 0 7 0 C7.33 1.98 7.66 3.96 8 6 C7.01 5.67 6.02 5.34 5 5 C4.67 5.66 4.34 6.32 4 7 C4 6.34 4 5.68 4 5 C3.34 4.67 2.68 4.34 2 4 C2.33 3.67 2.66 3.34 3 3 C2.01 2.01 1.02 1.02 0 0 Z " fill="#ED702B" transform="translate(138,310)" />
<path d="M0 0 C0.33 0 0.66 0 1 0 C1.36474164 5.47112462 1.36474164 5.47112462 -0.25 7.8125 C-2.26386995 9.17905461 -3.5693562 9.77903238 -6 10 C-8.25 9.0625 -8.25 9.0625 -10 8 C-10 7.67 -10 7.34 -10 7 C-7.36 7 -4.72 7 -2 7 C-1.855625 6.401875 -1.71125 5.80375 -1.5625 5.1875 C-1.1127561 3.43849596 -0.57107659 1.71322977 0 0 Z " fill="#D0763E" transform="translate(209,288)" />
<path d="M0 0 C2.475 0.495 2.475 0.495 5 1 C4.42415568 3.38564077 3.77772405 5.66682784 3 8 C2.01 7.67 1.02 7.34 0 7 C0 4.69 0 2.38 0 0 Z " fill="#EC6E25" transform="translate(204,287)" />
<path d="M0 0 C0.75 1.75 0.75 1.75 1 4 C-0.875 6.125 -0.875 6.125 -3 8 C-4.14814997 10.29629994 -4.30769809 12.07698086 -4.5625 14.625 C-4.64628906 15.44226563 -4.73007812 16.25953125 -4.81640625 17.1015625 C-4.87699219 17.72804687 -4.93757813 18.35453125 -5 19 C-5.33 19 -5.66 19 -6 19 C-6.50607963 12.01328953 -6.08682784 7.7696393 -2 2 C-1.34 1.34 -0.68 0.68 0 0 Z " fill="#D47944" transform="translate(272,199)" />
<path d="M0 0 C4.6875 0.78125 4.6875 0.78125 9.375 1.5625 C10.674375 1.7790625 10.674375 1.7790625 12 2 C12 1.34 12 0.68 12 0 C13.32 0.33 14.64 0.66 16 1 C11.21788219 3.39105891 8.3330247 4.6968715 3 3 C1.125 1.4375 1.125 1.4375 0 0 Z " fill="#D87F46" transform="translate(156,154)" />
<path d="M0 0 C0.66 0.33 1.32 0.66 2 1 C2.625 4.0625 2.625 4.0625 3 7 C1.35 7 -0.3 7 -2 7 C-2.125 4.625 -2.125 4.625 -2 2 C-1.34 1.34 -0.68 0.68 0 0 Z " fill="#E96D23" transform="translate(295,283)" />
<path d="M0 0 C1.98 0.66 3.96 1.32 6 2 C5.67 2.99 5.34 3.98 5 5 C6.65 5.33 8.3 5.66 10 6 C10 6.33 10 6.66 10 7 C6.33924624 7.3327958 4.60499012 7.46170299 1.625 5.1875 C0 3 0 3 0 0 Z " fill="#EE6D20" transform="translate(85,252)" />
<path d="M0 0 C3.875 1.75 3.875 1.75 5 4 C5.25 7.4375 5.25 7.4375 5 11 C4.01 11.99 3.02 12.98 2 14 C2 10.37 2 6.74 2 3 C1.34 2.67 0.68 2.34 0 2 C0 1.34 0 0.68 0 0 Z " fill="#D27844" transform="translate(88,205)" />
<path d="M0 0 C0.680625 0.00773438 1.36125 0.01546875 2.0625 0.0234375 C3.0834375 0.01183594 3.0834375 0.01183594 4.125 0 C6.0625 0.3984375 6.0625 0.3984375 9.0625 3.3984375 C4.4425 3.3984375 -0.1775 3.3984375 -4.9375 3.3984375 C-1.9375 0.3984375 -1.9375 0.3984375 0 0 Z " fill="#CE7C46" transform="translate(161.9375,202.6015625)" />
<path d="M0 0 C-0.33 1.32 -0.66 2.64 -1 4 C-3.31 4 -5.62 4 -8 4 C-7.67 2.68 -7.34 1.36 -7 0 C-2.25 -1.125 -2.25 -1.125 0 0 Z " fill="#EE6C21" transform="translate(244,153)" />
<path d="M0 0 C3.39914975 1.13304992 4.05254451 2.12518475 6 5 C5.67 5.66 5.34 6.32 5 7 C4.01 6.67 3.02 6.34 2 6 C1.67 6.99 1.34 7.98 1 9 C0.34 8.34 -0.32 7.68 -1 7 C-0.625 3.375 -0.625 3.375 0 0 Z " fill="#E07833" transform="translate(231,85)" />
<path d="M0 0 C0 0.33 0 0.66 0 1 C-1.98 1.66 -3.96 2.32 -6 3 C-6 5.64 -6 8.28 -6 11 C-6.99 10.34 -7.98 9.68 -9 9 C-9.39964378 5.8694571 -9.52149743 3.86916239 -7.875 1.125 C-5.21965017 -0.4682099 -3.03210482 -0.20214032 0 0 Z " fill="#D3703D" transform="translate(114,282)" />
<path d="M0 0 C2.66666667 0 5.33333333 0 8 0 C7.67 0.66 7.34 1.32 7 2 C6.01 2.33 5.02 2.66 4 3 C4.99 3.66 5.98 4.32 7 5 C5.1875 5.625 5.1875 5.625 3 6 C2.01 5.34 1.02 4.68 0 4 C0 2.68 0 1.36 0 0 Z " fill="#E7742A" transform="translate(158,282)" />
<path d="M0 0 C2 2 2 2 2.375 5.25 C1.94057645 9.59423553 0.76376984 11.66721873 -2 15 C-2.66 15 -3.32 15 -4 15 C-3.36 11.288 -3.36 11.288 -1.4375 9.75 C0.96503044 6.82518034 0.18107216 3.68180062 0 0 Z " fill="#D57845" transform="translate(144,168)" />
<path d="M0 0 C3.04398329 2.84759727 4.88998401 4.69846555 5.09765625 9.04296875 C5.06510417 11.02864583 5.03255208 13.01432292 5 15 C4.67 15 4.34 15 4 15 C4 12.69 4 10.38 4 8 C3.01 7.67 2.02 7.34 1 7 C0.67 4.69 0.34 2.38 0 0 Z " fill="#D47A44" transform="translate(306,126)" />
<path d="M0 0 C0.66 0.33 1.32 0.66 2 1 C2 2.98 2 4.96 2 7 C0.35 7.33 -1.3 7.66 -3 8 C-3 6.35 -3 4.7 -3 3 C-2.01 2.67 -1.02 2.34 0 2 C0 1.34 0 0.68 0 0 Z " fill="#E5712A" transform="translate(139,245)" />
<path d="M0 0 C0.98484375 0.02707031 1.9696875 0.05414063 2.984375 0.08203125 C3.73203125 0.11683594 4.4796875 0.15164062 5.25 0.1875 C5.25 0.5175 5.25 0.8475 5.25 1.1875 C0.17523206 2.45055335 -4.47796354 3.45786084 -9.75 3.1875 C-6.47698081 0.21840402 -4.36934238 -0.15604794 0 0 Z " fill="#D77341" transform="translate(322.75,193.8125)" />
<path d="M0 0 C0.99 0.495 0.99 0.495 2 1 C3.30765478 4.92296433 3.1971417 7.86002433 3 12 C2.34 12.66 1.68 13.32 1 14 C-0.20568053 9.32798795 -0.09382426 4.78503708 0 0 Z " fill="#D67B45" transform="translate(234,171)" />
<path d="M0 0 C0.66 0.33 1.32 0.66 2 1 C-1.17320782 4.53586014 -3.16743695 6.58578031 -8 7 C-3.76744186 1.25581395 -3.76744186 1.25581395 0 0 Z " fill="#D87940" transform="translate(254,152)" />
<path d="M0 0 C0 3 0 3 -2 6 C-2 6.99 -2 7.98 -2 9 C-2.66 9 -3.32 9 -4 9 C-4 11.31 -4 13.62 -4 16 C-4.33 16 -4.66 16 -5 16 C-5.51257038 9.59287031 -5.13597047 6.01329753 -1 1 C-0.67 0.67 -0.34 0.34 0 0 Z " fill="#D5793E" transform="translate(253,99)" />
<path d="M0 0 C5.43806647 -0.36253776 5.43806647 -0.36253776 7.9375 1.25 C9 3 9 3 8.6875 5.1875 C8.3471875 6.0846875 8.3471875 6.0846875 8 7 C7.67 6.01 7.34 5.02 7 4 C5.12612784 3.19787372 5.12612784 3.19787372 2.9375 2.8125 C2.20402344 2.65394531 1.47054687 2.49539063 0.71484375 2.33203125 C0.14894531 2.22246094 -0.41695312 2.11289062 -1 2 C-0.67 1.34 -0.34 0.68 0 0 Z " fill="#C97340" transform="translate(240,275)" />
<path d="M0 0 C1.32 0 2.64 0 4 0 C4.33 1.65 4.66 3.3 5 5 C4.01 5.495 4.01 5.495 3 6 C0.875 5.0625 0.875 5.0625 -1 4 C-0.67 2.68 -0.34 1.36 0 0 Z " fill="#EF6E22" transform="translate(88,246)" />
<path d="M0 0 C0.99 0 1.98 0 3 0 C3 1.65 3 3.3 3 5 C0.69 5 -1.62 5 -4 5 C-2.1875 2.5 -2.1875 2.5 0 0 Z " fill="#DF7539" transform="translate(197,122)" />
<path d="M0 0 C1.43861294 0.08746284 2.87597508 0.19565348 4.3125 0.3125 C5.11300781 0.37050781 5.91351563 0.42851563 6.73828125 0.48828125 C9.36272334 1.08206694 10.30820672 1.95780294 12 4 C8.96663814 4.22893297 6.02534949 4.36475845 3 4 C0.9375 2 0.9375 2 0 0 Z " fill="#DE8338" transform="translate(201,121)" />
<path d="M0 0 C0.33 0 0.66 0 1 0 C1 2.31 1 4.62 1 7 C-1.4375 6.625 -1.4375 6.625 -4 6 C-4.33 5.34 -4.66 4.68 -5 4 C-3.68 4 -2.36 4 -1 4 C-0.67 2.68 -0.34 1.36 0 0 Z " fill="#DD7533" transform="translate(133,252)" />
<path d="M0 0 C1.21693876 2.43387753 1.31959896 4.41838846 1.5625 7.125 C1.64628906 8.03507813 1.73007813 8.94515625 1.81640625 9.8828125 C1.87699219 10.58148438 1.93757812 11.28015625 2 12 C-0.0625 10.4375 -0.0625 10.4375 -2 8 C-1.67857143 1.67857143 -1.67857143 1.67857143 0 0 Z " fill="#D37D3E" transform="translate(177,241)" />
<path d="M0 0 C0.33 0 0.66 0 1 0 C1.55353075 10.55808656 1.55353075 10.55808656 -2 15 C-3.33332095 12.3333581 -2.67102033 10.83319697 -2 8 C-1.34 8 -0.68 8 0 8 C0 5.36 0 2.72 0 0 Z " fill="#D67B43" transform="translate(299,208)" />
<path d="M0 0 C0.66 0 1.32 0 2 0 C2 0.99 2 1.98 2 3 C2.99 3.66 3.98 4.32 5 5 C3.54257537 5.08096803 2.08387193 5.13917774 0.625 5.1875 C-0.18710938 5.22230469 -0.99921875 5.25710937 -1.8359375 5.29296875 C-2.55007812 5.19628906 -3.26421875 5.09960938 -4 5 C-4.66 4.01 -5.32 3.02 -6 2 C-5.01 2 -4.02 2 -3 2 C-3 2.66 -3 3.32 -3 4 C-0.94729537 2.15811388 -0.94729537 2.15811388 0 0 Z " fill="#E07232" transform="translate(220,186)" />
<path d="M0 0 C2.0625 0.4375 2.0625 0.4375 4 1 C-1.32006564 4.41029848 -5.05542387 4.09644404 -11 3 C-8.59463186 2.3738738 -6.2755317 1.88635791 -3.8125 1.5 C-1.10458978 1.29539764 -1.10458978 1.29539764 0 0 Z " fill="#D17A4E" transform="translate(188,106)" />
<path d="M0 0 C-0.66 0.66 -1.32 1.32 -2 2 C-2.99 2 -3.98 2 -5 2 C-5 2.66 -5 3.32 -5 4 C-5.99 4.33 -6.98 4.66 -8 5 C-8.66 3.68 -9.32 2.36 -10 1 C-6.59437148 0.22157062 -3.49234244 -0.09978121 0 0 Z " fill="#EC6920" transform="translate(223,86)" />
<path d="M0 0 C0.66 0.66 1.32 1.32 2 2 C1.8125 5.5 1.8125 5.5 1 9 C0.01 9.66 -0.98 10.32 -2 11 C-1.67 9.02 -1.34 7.04 -1 5 C-0.34 5 0.32 5 1 5 C1 4.34 1 3.68 1 3 C0.34 2.67 -0.32 2.34 -1 2 C-0.67 1.34 -0.34 0.68 0 0 Z " fill="#DA7644" transform="translate(98,248)" />
<path d="M0 0 C0.33 1.32 0.66 2.64 1 4 C-0.32 3.67 -1.64 3.34 -3 3 C-3.33 3.66 -3.66 4.32 -4 5 C-4.99 4.34 -5.98 3.68 -7 3 C-6.67 2.34 -6.34 1.68 -6 1 C-3.911361 0.32624548 -2.19636905 0 0 0 Z " fill="#E87A2F" transform="translate(256,203)" />
<path d="M0 0 C3.7952131 1.49097658 5.61042731 3.75700849 8 7 C7.67 7.66 7.34 8.32 7 9 C6.1028125 7.7934375 6.1028125 7.7934375 5.1875 6.5625 C3.19052724 3.77672016 3.19052724 3.77672016 0 3 C0 2.01 0 1.02 0 0 Z " fill="#D57743" transform="translate(332,197)" />
<path d="M0 0 C2.31 0.66 4.62 1.32 7 2 C6.01 2.495 6.01 2.495 5 3 C5 3.66 5 4.32 5 5 C3.68 4.67 2.36 4.34 1 4 C0.67 2.68 0.34 1.36 0 0 Z " fill="#E4722C" transform="translate(175,184)" />
<path d="M0 0 C1.68208635 0.97383946 3.34738161 1.97695052 5 3 C7.69254991 3.70670728 7.69254991 3.70670728 10 4 C10 4.33 10 4.66 10 5 C8.39482903 4.91266424 6.79078338 4.80447776 5.1875 4.6875 C3.84751953 4.60048828 3.84751953 4.60048828 2.48046875 4.51171875 C-0.30604 3.93686419 -1.24135754 3.1793144 -3 1 C-2.01 0.67 -1.02 0.34 0 0 Z " fill="#D97F3E" transform="translate(276,225)" />
<path d="M0 0 C0.66 0 1.32 0 2 0 C2 2.31 2 4.62 2 7 C-1.875 5.25 -1.875 5.25 -3 3 C-2.01 2.67 -1.02 2.34 0 2 C0 1.34 0 0.68 0 0 Z " fill="#DC743A" transform="translate(234,150)" />
<path d="M0 0 C2.80045623 3.14591933 3.35261589 5.067064 3.1875 9.25 C3.16042969 10.14203125 3.13335937 11.0340625 3.10546875 11.953125 C3.07066406 12.62859375 3.03585937 13.3040625 3 14 C2.67 14 2.34 14 2 14 C1.77213542 11.94921875 1.54427083 9.8984375 1.31640625 7.84765625 C1.18113386 5.98859771 1.18113386 5.98859771 0 5 C-0.04063832 3.33382885 -0.042721 1.66611905 0 0 Z " fill="#E17B4C" transform="translate(255,136)" />
<path d="M0 0 C1.32 0 2.64 0 4 0 C3.6875 2.375 3.6875 2.375 3 5 C2.01 5.66 1.02 6.32 0 7 C-1.04449911 3.86650268 -0.93423645 3.01031744 0 0 Z " fill="#DF7634" transform="translate(306,141)" />
<path d="M0 0 C-0.33 1.32 -0.66 2.64 -1 4 C-2.65 4 -4.3 4 -6 4 C-5.67 3.01 -5.34 2.02 -5 1 C-3 0 -3 0 0 0 Z " fill="#F06D22" transform="translate(162,134)" />
<path d="M0 0 C1.32 0.66 2.64 1.32 4 2 C3.625 4.4375 3.625 4.4375 3 7 C2.01 7.495 2.01 7.495 1 8 C0.17361624 5.10765685 0 3.11257569 0 0 Z " fill="#E27130" transform="translate(134,104)" />
<path d="M0 0 C1.32 1.32 2.64 2.64 4 4 C3.34 5.65 2.68 7.3 2 9 C1.67 9 1.34 9 1 9 C0.67 6.03 0.34 3.06 0 0 Z " fill="#D37848" transform="translate(228,323)" />
<path d="M0 0 C1.98 0.99 1.98 0.99 4 2 C3.67 3.65 3.34 5.3 3 7 C3.66 7.33 4.32 7.66 5 8 C4.01 8 3.02 8 2 8 C-0.1519437 4.77208445 -0.20086443 3.71599191 0 0 Z " fill="#DF722D" transform="translate(179,326)" />
<path d="M0 0 C0.66 0.33 1.32 0.66 2 1 C1.67 1.33 1.34 1.66 1 2 C0.95919217 3.99958364 0.95745644 6.00045254 1 8 C-0.32 7.34 -1.64 6.68 -3 6 C-1.125 1.125 -1.125 1.125 0 0 Z " fill="#D2673A" transform="translate(293,283)" />
<path d="M0 0 C2.31 0.33 4.62 0.66 7 1 C7 1.66 7 2.32 7 3 C8.32 3.33 9.64 3.66 11 4 C6.35108046 4.32434322 3.77593392 3.776422 0 1 C0 0.67 0 0.34 0 0 Z " fill="#D97846" transform="translate(234,224)" />
<path d="M0 0 C0.66 0.33 1.32 0.66 2 1 C1.2884375 1.6496875 1.2884375 1.6496875 0.5625 2.3125 C-1.23686957 4.02309613 -1.23686957 4.02309613 -2 7 C-3.32 6.67 -4.64 6.34 -6 6 C-4.02 4.02 -2.04 2.04 0 0 Z " fill="#CD7446" transform="translate(306,157)" />
<path d="M0 0 C0.99 0.33 1.98 0.66 3 1 C3 2.98 3 4.96 3 7 C2.34 6.67 1.68 6.34 1 6 C1 5.01 1 4.02 1 3 C-0.32 2.67 -1.64 2.34 -3 2 C-2.01 1.34 -1.02 0.68 0 0 Z " fill="#EC7721" transform="translate(154,146)" />
<path d="M0 0 C3.68754757 0.49831724 5.60490662 1.10067643 8 4 C6.02 4 4.04 4 2 4 C1.34 2.68 0.68 1.36 0 0 Z " fill="#DC783F" transform="translate(164,132)" />
</svg>