<svg xmlns="http://www.w3.org/2000/svg" viewBox="0 0 240 60" preserveAspectRatio="none" fill="none">
  <defs>
    <path id="leaf" d="M5 6 18 5 30 6 46 5 65 6 86 5 111 6 135 5 159 6 181 5 204 6 222 5 234 7 235 18 233 21 235 34 234 46 232 53 217 54 202 53 183 54 159 53 137 54 114 53 91 54 68 53 46 54 28 53 13 54 5 52 4 41 5 31 4 19Z"/>
    <clipPath id="leaf-clip"><use href="#leaf"/></clipPath>
    <radialGradient id="paper" cx=".46" cy=".4" r=".8">
      <stop stop-color="#FFF8E9"/><stop offset=".5" stop-color="#F7EDD8"/><stop offset=".87" stop-color="#E5D5B5"/><stop offset="1" stop-color="#D5BD95"/>
    </radialGradient>
    <radialGradient id="age"><stop stop-color="#AD8957" stop-opacity=".18"/><stop offset="1" stop-color="#AD8957" stop-opacity="0"/></radialGradient>
    <pattern id="fibres" width="27" height="18" patternUnits="userSpaceOnUse">
      <path d="M0 4Q11 3 27 5M0 13Q16 14 27 12" stroke="#AA916A" stroke-opacity=".13" stroke-width=".45"/>
      <path d="M5 0 4.5 18M19 0 19.5 18" stroke="#FFFDF4" stroke-opacity=".65" stroke-width=".7"/>
      <path d="M11 2 11.5 7M23 11 22.7 17" stroke="#B29A75" stroke-opacity=".18" stroke-width=".4"/>
    </pattern>
    <filter id="grain" x="0" y="0" width="100%" height="100%">
      <feTurbulence type="fractalNoise" baseFrequency=".28 .75" numOctaves="2" seed="27" stitchTiles="stitch"/>
      <feColorMatrix type="saturate" values="0"/>
      <feComponentTransfer><feFuncA type="linear" slope=".12"/></feComponentTransfer>
      <feBlend in="SourceGraphic" mode="multiply"/>
    </filter>
  </defs>
  <use href="#leaf" fill="url(#paper)"/>
  <g clip-path="url(#leaf-clip)">
    <path d="M0 0H240V60H0Z" fill="url(#fibres)"/>
    <ellipse cx="15" cy="49" rx="30" ry="18" fill="url(#age)"/>
    <ellipse cx="225" cy="9" rx="27" ry="17" fill="url(#age)"/>
    <path d="M0 0H240V60H0Z" fill="#D9C7A4" filter="url(#grain)" opacity=".12"/>
    <path d="M11 10Q58 8 110 10T229 10" stroke="#FFFDF5" stroke-opacity=".7" stroke-width=".8"/>
    <path d="M12 49Q57 51 105 49T227 49" stroke="#9C8059" stroke-opacity=".18" stroke-width=".55"/>
    <path d="M15 5 18 15M222 46 226 54" stroke="#AF946B" stroke-opacity=".18" stroke-width=".55"/>
    <path d="M16 5 19 15M223 46 227 54" stroke="#FFFDF4" stroke-opacity=".6" stroke-width=".65"/>
    <path d="M4 23 7 22M232 42 236 43M37 54 40 51" stroke="#AA8B5D" stroke-opacity=".27" stroke-width=".65"/>
  </g>
  <use href="#leaf" stroke="#B49B75" stroke-opacity=".48" stroke-width=".65"/>
</svg>
